PathFileType	4	(X/Y/Z)	E:\Qualisys_Data\Carbon_Farble_Plate\Data\Amateur_Runner\S1\T1\S1T1V13_c3d.trc
DataRate	CameraRate	NumFrames	NumMarkers	Units	OrigDataRate	OrigDataStartFrame	OrigNumFrames
200.000000	200.000000	5	39	mm	200.000000	164	328
Frame#	Time	LSHO			RSHO			LICST			RICST			LASIS			LHEEL			RASIS			LTROC			RTROC			SACR			LTH1			LSK4			LTH2			LTH3			RHM5			LSK2			LTH4			RTH1			LTOE			RTH2			RTH3			RTH4			LLEP			RLEP			LSK1			LSK3			RSK1			LHM5			RSK2			LFT1			RSK3			RSK4			LLME			RLME			RTOE			RHEEL			RFT1			RFT2			LFT2			
		X1	Y1	Z1	X2	Y2	Z2	X3	Y3	Z3	X4	Y4	Z4	X5	Y5	Z5	X6	Y6	Z6	X7	Y7	Z7	X8	Y8	Z8	X9	Y9	Z9	X10	Y10	Z10	X11	Y11	Z11	X12	Y12	Z12	X13	Y13	Z13	X14	Y14	Z14	X15	Y15	Z15	X16	Y16	Z16	X17	Y17	Z17	X18	Y18	Z18	X19	Y19	Z19	X20	Y20	Z20	X21	Y21	Z21	X22	Y22	Z22	X23	Y23	Z23	X24	Y24	Z24	X25	Y25	Z25	X26	Y26	Z26	X27	Y27	Z27	X28	Y28	Z28	X29	Y29	Z29	X30	Y30	Z30	X31	Y31	Z31	X32	Y32	Z32	X33	Y33	Z33	X34	Y34	Z34	X35	Y35	Z35	X36	Y36	Z36	X37	Y37	Z37	X38	Y38	Z38	X39	Y39	Z39	

165	0.82	71.77655029296875	1533.5859375	-554.7438354492188	3.032985210418701	1512.603637695312	-242.8832092285156	21.79639053344727	1049.80322265625	-546.4165649414062	23.40148544311523	1068.221557617188	-251.0785827636719	64.40676879882812	1009.011535644531	-522.0739135742188	-530.1473999023438	380.5547180175781	-463.7946472167969	60.36458206176758	1020.820495605469	-259.6343078613281	-58.16237640380859	937.748046875	-564.7362060546875	-42.17853927612305	926.5477294921876	-227.061279296875	-96.77867889404295	1077.767822265625	-393.0108642578125	30.57213020324707	764.006103515625	-532.8951416015625	-400.8084716796875	441.7955322265625	-490.5828247070312	-45.59491729736328	777.3684692382812	-564.205810546875	5.00066614151001	663.23291015625	-521.0728149414062	361.2452087402344	117.7326278686523	-254.1950225830078	-312.8046875	483.5786743164062	-526.995849609375	-74.30230712890625	681.8796997070312	-545.5275268554688	109.1147232055664	819.8652954101562	-245.9007415771484	-454.5632629394531	137.5190277099609	-440.5310668945312	37.29027557373047	797.2931518554688	-213.8512115478516	138.6062622070312	722.3977661132812	-248.1131744384766	61.59812545776367	700.3888549804688	-227.7700653076172	-98.677978515625	525.138671875	-517.3250732421875	147.3627471923828	557.3180541992188	-276.0236511230469	-278.4520568847656	405.9339294433594	-519.6278076171875	-372.6533508300781	369.7101440429688	-514.818115234375	188.6124267578125	373.0169982910156	-255.6721496582031	-496.6506958007812	184.3210906982422	-503.5738220214844	110.1571884155273	354.9372253417969	-263.5901794433594	-547.891357421875	367.080322265625	-429.9881896972656	214.4193878173828	276.5652465820312	-269.5481872558594	137.92578125	258.1387023925781	-289.3533325195312	-491.3970031738281	337.7810363769531	-507.1495056152344	218.9775543212891	136.7592926025391	-269.9140014648438	413.9603271484375	167.3538055419922	-329.8051147460938	174.7197265625	73.94400787353516	-313.3518371582031	196.4029388427734	53.69670867919922	-347.5188293457031	190.5647277832031	51.81306076049805	-289.4118957519531	-556.988037109375	363.3152770996094	-484.5334777832031
166	0.825	87.02134704589844	1530.674438476562	-553.3363647460938	18.57850074768066	1508.578247070312	-241.4610443115234	36.42379760742188	1046.473754882812	-546.1386108398438	36.13850402832031	1064.980224609375	-250.2219085693359	79.65886688232422	1005.873779296875	-521.6751708984375	-512.1577758789062	386.0082397460938	-463.3741760253906	75.20132446289062	1018.15673828125	-258.9349060058594	-42.2866096496582	933.6428833007812	-564.8904418945312	-27.38325881958008	923.4898071289062	-227.2117919921875	-81.82234954833984	1074.059936523438	-393.0121154785156	48.61320877075195	760.9527587890625	-532.8062133789062	-381.1724853515625	443.6718444824219	-490.4172668457031	-27.69367980957031	773.5145874023438	-564.2142944335938	24.68212699890137	659.898193359375	-521.7724609375	369.9413757324219	112.033561706543	-255.4630432128906	-292.1953125	483.443359375	-527.248291015625	-55.23088455200195	677.5283813476562	-545.7906494140625	124.7941360473633	818.6578369140625	-243.9584655761719	-441.2345886230469	141.2292938232422	-440.3302307128906	52.37809371948242	795.0906372070312	-214.3207550048828	155.0704803466797	721.107421875	-247.3262481689453	77.31988525390625	698.5067138671875	-229.1692199707031	-77.79042053222656	520.9197387695312	-518.3031005859375	162.7284393310547	554.5294799804688	-276.3209228515625	-259.8331604003906	405.3829956054688	-519.8771362304688	-354.9188842773438	371.1565856933594	-514.5003662109375	201.2359619140625	369.1069030761719	-256.2559204101562	-482.2084655761719	189.0851135253906	-503.3963012695312	122.0105590820312	351.6964416503906	-264.3042297363281	-529.3480224609375	373.1929321289062	-429.3888244628906	225.1209259033203	272.1149597167969	-269.2901000976562	148.1209716796875	256.0240478515625	-287.5684204101562	-474.2746887207031	342.4070434570312	-506.7913208007812	228.1215515136719	132.2280883789062	-270.6190490722656	422.3859558105469	162.2651062011719	-331.2948608398438	182.7459564208984	69.64989471435547	-313.9244995117188	204.3231201171875	49.78360366821289	-348.5942993164062	199.2971496582031	47.3331184387207	-289.9808349609375	-538.8303833007812	369.3915100097656	-483.7856750488281
167	0.83	102.1357269287109	1527.185546875	-551.9696044921875	34.18714141845703	1504.739013671875	-240.1740875244141	51.37087249755859	1043.082763671875	-545.8598022460938	50.24392318725586	1061.691162109375	-249.8288879394531	94.58394622802734	1002.90234375	-521.3350219726562	-493.0736389160156	391.0677490234375	-462.5458679199219	89.60904693603516	1015.200622558594	-258.6469421386719	-26.71134948730469	929.5108032226562	-565.0950927734375	-12.60039710998535	920.3955688476562	-227.1528167724609	-67.17354583740234	1070.313842773438	-393.0475769042969	66.52935028076172	758.053466796875	-533.45068359375	-360.8017578125	445.4203796386719	-490.26220703125	-10.02143859863281	769.4417114257812	-564.3548583984375	44.02178192138672	656.1852416992188	-522.567138671875	377.9306640625	105.9709396362305	-256.9481811523438	-272.1416625976562	483.4351501464844	-527.29833984375	-36.1784782409668	672.9044799804688	-545.7803344726562	140.7950134277344	816.974609375	-243.0921173095703	-426.8749389648438	145.1031036376953	-440.447021484375	67.96935272216797	792.7501220703125	-215.4331970214844	171.5932006835938	719.5885620117188	-247.237060546875	93.40943145751952	696.4474487304688	-230.5785522460938	-56.69469833374023	516.4422607421875	-519.2987060546875	178.0786895751953	551.1621704101562	-276.5942687988281	-240.7398986816406	404.309326171875	-520.0839233398438	-336.9145202636719	372.7217102050781	-514.2393188476562	212.7196502685547	364.5352172851562	-256.231689453125	-467.1195068359375	193.40234375	-503.1647338867188	133.0728149414062	348.3283081054688	-265.2464904785156	-510.7694702148438	378.7192077636719	-428.5464172363281	234.6914978027344	267.0960998535156	-270.0477600097656	157.1200866699219	252.3636627197266	-288.353515625	-456.2694091796875	346.7508544921875	-506.4914855957031	235.9546203613281	127.5430297851562	-271.199951171875	429.8909912109375	156.3397369384766	-332.6031799316406	190.8192291259766	68.78704071044922	-314.9168395996094	210.8463134765625	47.67075347900391	-349.6213073730469	205.8012084960938	45.69999694824219	-290.9210815429688	-520.2742309570312	375.1150207519531	-483.4375305175781
168	0.835	117.293083190918	1523.53125	-550.693115234375	49.73174667358398	1500.07275390625	-238.8821105957031	66.35113525390625	1039.303955078125	-546.0274047851562	65.21455383300781	1059.018920898438	-249.9015502929688	109.3600387573242	999.2965698242188	-520.7861938476562	-473.4451904296875	395.6138610839844	-461.9049377441406	104.0541915893555	1012.26708984375	-257.8943786621094	-10.79698944091797	925.0960083007812	-564.9638671875	1.879201531410217	916.9381713867188	-227.3159027099609	-53.02958297729492	1066.24072265625	-393.1620178222656	84.3199691772461	754.7169189453125	-533.7781982421875	-340.4716186523438	446.8994750976562	-489.9152526855469	7.514147281646729	764.9110107421875	-564.5858154296875	63.6508674621582	652.7367553710938	-523.3419799804688	384.07568359375	98.6462173461914	-257.8209838867188	-250.6154174804688	482.7638549804688	-527.44970703125	-17.08493804931641	668.297119140625	-546.6223754882812	156.6266784667969	815.2852172851562	-241.8421325683594	-412.1871337890625	148.255615234375	-440.6493225097656	83.31048583984375	789.9441528320312	-216.1995391845703	187.681884765625	718.0667114257812	-247.0606536865234	109.0412063598633	694.335205078125	-231.5469360351562	-35.14463806152344	511.4886474609375	-520.1918334960938	192.6803131103516	547.8239135742188	-276.70751953125	-221.4232482910156	403.4578552246094	-520.1290893554688	-317.6096496582031	373.2671203613281	-514.4466552734375	223.6932525634766	359.5099792480469	-256.3185119628906	-451.3832092285156	197.8670806884766	-503.350341796875	144.0990142822266	345.263916015625	-266.0556640625	-491.1899719238281	383.8348693847656	-427.8341979980469	244.4773712158203	262.0823669433594	-269.9731140136719	166.6568756103516	249.1111602783203	-288.8922119140625	-437.9601440429688	350.4614868164062	-505.8600463867188	243.4615325927734	123.648323059082	-272.0068359375	436.9415893554688	146.85498046875	-334.3835144042969	194.9923706054688	71.82009887695312	-314.7688293457031	214.056884765625	49.88417816162109	-350.0364685058594	208.6409606933594	49.55913543701172	-290.9120178222656	-500.8170166015625	380.2673950195312	-482.6826782226562
169	0.84	132.5638885498047	1520.2041015625	-549.5537719726562	65.15196228027344	1495.615478515625	-237.6333465576172	81.1185531616211	1035.495483398438	-545.824951171875	79.50088500976562	1055.453247070312	-249.7074584960938	124.230224609375	995.4793701171876	-520.5848388671875	-453.560791015625	400.1893615722656	-461.303466796875	118.7169036865234	1008.946594238281	-257.2613830566406	4.899848461151123	920.2940673828124	-565.3037109375	16.42840576171875	913.6159057617188	-227.5281829833984	-37.98345947265625	1061.890014648438	-393.5791320800781	101.8675689697266	751.0487060546875	-534.4660034179688	-319.4186401367188	448.0906982421875	-489.6039123535156	24.71552848815918	760.7337036132812	-564.908935546875	82.858642578125	648.8485107421875	-524.236572265625	389.2373962402344	89.29927062988281	-259.7798461914062	-228.7491149902344	481.857666015625	-527.2264404296875	2.195260047912598	663.2904663085938	-546.8551025390625	172.4888458251953	813.1236572265625	-240.5900421142578	-396.6648254394531	151.5406036376953	-441.231689453125	98.68056488037108	787.1698608398438	-216.7832489013672	204.1883392333984	716.32421875	-247.517578125	125.2333450317383	691.9751586914062	-232.6309204101562	-13.56198501586914	506.7823486328125	-520.8285522460938	207.330810546875	543.9751586914062	-276.5212097167969	-201.1425323486328	402.0796813964844	-520.7346801757812	-298.5463562011719	374.1275329589844	-514.3550415039062	234.7262573242188	354.3348388671875	-256.5536193847656	-435.4295959472656	202.1328277587891	-503.5591735839844	154.6026611328125	341.0932312011719	-267.1832275390625	-471.305419921875	388.2202758789062	-427.4341125488281	253.4786834716797	256.4862976074219	-270.7758483886719	176.0871124267578	244.8040771484375	-290.6838073730469	-419.0790405273438	354.6104736328125	-505.8212280273438	250.385009765625	119.4548568725586	-273.205078125	444.1221923828125	135.43505859375	-335.0831298828125	200.1975402832031	73.15757751464844	-313.8590087890625	216.2257232666016	49.03152084350586	-348.0592041015625	212.6438903808594	49.68622207641602	-290.6389770507812	-481.1092834472656	385.3295288085938	-481.99951171875
